<?xml version="1.0" standalone="no"?><!DOCTYPE svg PUBLIC "-//W3C//DTD SVG 1.1//EN" "http://www.w3.org/Graphics/SVG/1.1/DTD/svg11.dtd"><svg t="1624970426674" class="icon" viewBox="0 0 1024 1024" version="1.1" xmlns="http://www.w3.org/2000/svg" p-id="1100" xmlns:xlink="http://www.w3.org/1999/xlink" width="200" height="200"><defs><style type="text/css"></style></defs><path d="M0 0h1024v1024H0z" fill="#FFFFFF" fill-opacity=".01" p-id="1101"></path><path d="M893.44 75.849143L99.693714 466.432a36.571429 36.571429 0 0 0-4.681143 62.829714l183.369143 126.756572c15.798857 7.899429 31.524571 7.899429 47.323429-7.899429l434.102857-370.980571-378.88 402.505143c-7.826286 7.899429-7.826286 15.798857-7.826286 23.698285v173.641143c0 15.798857 7.899429 31.597714 23.625143 39.497143 15.798857 7.899429 31.597714 0 39.497143-7.899429l86.820571-88.429714 192.073143 128.146286a36.571429 36.571429 0 0 0 56.027429-22.674286L945.298286 116.297143a36.571429 36.571429 0 0 0-51.931429-40.521143z" fill="#94bfff" p-id="1102"></path></svg>